<svg id="Layer_2" data-name="Layer 2" xmlns="http://www.w3.org/2000/svg" xmlns:xlink="http://www.w3.org/1999/xlink" viewBox="0 0 19.67 27.26"><defs><style>.cls-1{fill:#503e7a;}</style></defs><path class="cls-1" d="M24,7.09a9.92,9.92,0,0,0-4.39-4.61,10,10,0,0,0-5.95-1A10.62,10.62,0,0,0,7.88,4.34,10.58,10.58,0,0,0,6.06,7.19c-.11.28-.19.52-.25.69a11.52,11.52,0,0,0-.62,2.87,9,9,0,0,0,.25,2.72,16.09,16.09,0,0,0,1.31,3.75,35.21,35.21,0,0,0,2.87,4.94c1.27,1.9.85,1.06,2.74,3.78,1.3,1.87,1.79,2.71,2.55,2.69.57,0,1-.5,1.75-1.51,2-2.56,3-3.84,3.43-4.5a43,43,0,0,0,2.53-4.13,16.49,16.49,0,0,0,2-4.95A10.4,10.4,0,0,0,24,7.09ZM14.91,16.3A5.09,5.09,0,1,1,20,11.21,5.09,5.09,0,0,1,14.91,16.3Z" transform="translate(-5.17 -1.37)"/><image width="512" height="512" transform="translate(6.66 6.4) scale(0.01)" xlink:href="../../Downloads/home.png"/></svg>